<svg width="238" height="44" viewBox="0 0 238 44" fill="none" xmlns="http://www.w3.org/2000/svg">
<path d="M124.36 0.519977V11.08H113.08V43H99.76V11.08H88.6V0.519977H124.36Z" fill="url(#paint0_linear_21_125)"/>
<path d="M138.293 11.14V16.36H151.493V26.38H138.293V32.38H153.293V43H124.973V0.519977H153.293V11.14H138.293Z" fill="url(#paint1_linear_21_125)"/>
<path d="M154.113 21.7C154.113 17.5 154.953 13.76 156.633 10.48C158.353 7.19998 160.792 4.65998 163.952 2.85998C167.112 1.01998 170.833 0.0999756 175.113 0.0999756C178.793 0.0999756 182.072 0.799976 184.952 2.19998C187.872 3.55998 190.233 5.49998 192.033 8.01998C193.872 10.54 195.093 13.48 195.693 16.84H181.652C181.012 15.44 180.093 14.36 178.893 13.6C177.733 12.8 176.392 12.4 174.872 12.4C172.632 12.4 170.853 13.24 169.533 14.92C168.253 16.6 167.613 18.86 167.613 21.7C167.613 24.54 168.253 26.8 169.533 28.48C170.853 30.16 172.632 31 174.872 31C176.392 31 177.733 30.62 178.893 29.86C180.093 29.06 181.012 27.96 181.652 26.56H195.693C195.093 29.92 193.872 32.86 192.033 35.38C190.233 37.9 187.872 39.86 184.952 41.26C182.072 42.62 178.793 43.3 175.113 43.3C170.833 43.3 167.112 42.4 163.952 40.6C160.792 38.76 158.353 36.2 156.633 32.92C154.953 29.64 154.113 25.9 154.113 21.7Z" fill="url(#paint2_linear_21_125)"/>
<path d="M196.288 21.7C196.288 17.5 197.128 13.76 198.808 10.48C200.528 7.19998 202.968 4.65998 206.128 2.85998C209.288 1.01998 213.008 0.0999756 217.288 0.0999756C220.968 0.0999756 224.248 0.799976 227.128 2.19998C230.048 3.55998 232.408 5.49998 234.208 8.01998C236.048 10.54 237.268 13.48 237.868 16.84H223.828C223.188 15.44 222.268 14.36 221.068 13.6C219.908 12.8 218.568 12.4 217.048 12.4C214.808 12.4 213.028 13.24 211.708 14.92C210.428 16.6 209.788 18.86 209.788 21.7C209.788 24.54 210.428 26.8 211.708 28.48C213.028 30.16 214.808 31 217.048 31C218.568 31 219.908 30.62 221.068 29.86C222.268 29.06 223.188 27.96 223.828 26.56H237.868C237.268 29.92 236.048 32.86 234.208 35.38C232.408 37.9 230.048 39.86 227.128 41.26C224.248 42.62 220.968 43.3 217.288 43.3C213.008 43.3 209.288 42.4 206.128 40.6C202.968 38.76 200.528 36.2 198.808 32.92C197.128 29.64 196.288 25.9 196.288 21.7Z" fill="url(#paint3_linear_21_125)"/>
<path d="M34.74 15.1C34.74 17.78 34.12 20.22 32.88 22.42C31.64 24.58 29.8 26.3 27.36 27.58C24.96 28.86 22.04 29.5 18.6 29.5H13.32V43H0V0.519977H18.6C23.8 0.519977 27.78 1.83998 30.54 4.47998C33.34 7.11998 34.74 10.66 34.74 15.1ZM17.1 19C19.86 19 21.24 17.7 21.24 15.1C21.24 12.5 19.86 11.2 17.1 11.2H13.32V19H17.1Z" fill="#282828"/>
<path d="M50.1848 15.4C51.5448 13.44 53.2048 11.88 55.1648 10.72C57.1248 9.51998 59.1648 8.91998 61.2848 8.91998V23.14H57.5048C54.9848 23.14 53.1248 23.58 51.9248 24.46C50.7648 25.34 50.1848 26.9 50.1848 29.14V43H36.8648V9.15998H50.1848V15.4Z" fill="#282828"/>
<path d="M78.8527 43.42C75.4527 43.42 72.3927 42.72 69.6727 41.32C66.9527 39.92 64.8127 37.92 63.2527 35.32C61.7327 32.68 60.9727 29.6 60.9727 26.08C60.9727 22.56 61.7327 19.5 63.2527 16.9C64.8127 14.26 66.9527 12.24 69.6727 10.84C72.3927 9.43998 75.4527 8.73997 78.8527 8.73997C82.2527 8.73997 85.3127 9.43998 88.0327 10.84C90.7527 12.24 92.8727 14.26 94.3927 16.9C95.9527 19.5 96.7327 22.56 96.7327 26.08C96.7327 29.6 95.9527 32.68 94.3927 35.32C92.8727 37.92 90.7527 39.92 88.0327 41.32C85.3127 42.72 82.2527 43.42 78.8527 43.42ZM78.8527 31.9C80.0927 31.9 81.1327 31.42 81.9727 30.46C82.8127 29.46 83.2327 28 83.2327 26.08C83.2327 24.16 82.8127 22.72 81.9727 21.76C81.1327 20.76 80.0927 20.26 78.8527 20.26C77.6127 20.26 76.5727 20.76 75.7327 21.76C74.8927 22.72 74.4727 24.16 74.4727 26.08C74.4727 28 74.8727 29.46 75.6727 30.46C76.5127 31.42 77.5727 31.9 78.8527 31.9Z" fill="#282828"/>
<defs>
<linearGradient id="paint0_linear_21_125" x1="105.506" y1="43.42" x2="237.868" y2="43.42" gradientUnits="userSpaceOnUse">
<stop stop-color="#03556E"/>
<stop offset="1" stop-color="#12A1A1"/>
</linearGradient>
<linearGradient id="paint1_linear_21_125" x1="105.506" y1="43.42" x2="237.868" y2="43.42" gradientUnits="userSpaceOnUse">
<stop stop-color="#03556E"/>
<stop offset="1" stop-color="#12A1A1"/>
</linearGradient>
<linearGradient id="paint2_linear_21_125" x1="105.506" y1="43.42" x2="237.868" y2="43.42" gradientUnits="userSpaceOnUse">
<stop stop-color="#03556E"/>
<stop offset="1" stop-color="#12A1A1"/>
</linearGradient>
<linearGradient id="paint3_linear_21_125" x1="105.506" y1="43.42" x2="237.868" y2="43.42" gradientUnits="userSpaceOnUse">
<stop stop-color="#03556E"/>
<stop offset="1" stop-color="#12A1A1"/>
</linearGradient>
</defs>
</svg>
